# xmcd
#
# Track frame offsets: 
#        182
#        11347
#        24225
#        38187
#        52660
#        65035
#        79150
#        90735
#        104587
#        117685
#        130382
#        143150
#        161197
#        175000
#        188195
#        202387
#
# Disc length: 2856 seconds
#
# Revision: 0
# Processed by: cddbd v1.4PL0 Copyright (c) Steve Scherf et al.
# Submitted via: ExactAudioCopy v0.90a11
#
DISCID=e30b2610
DTITLE=Jimmy Rushing - The Blues Singer. 1937-1938
DYEAR=1900
DGENRE=
TTITLE0=Boo-Hoo
TTITLE1=Boogie Woogie (I May Be Wrong)
TTITLE2=Listen My Children (And You Shall Hear)
TTITLE3=Good Morning Blues
TTITLE4=I Keep Remembering
TTITLE5=Don't You Miss Your Baby?
TTITLE6=Georgianna
TTITLE7=Blues In The Dark
TTITLE8=Sent For You Yesterday
TTITLE9=Now, Will You Be Good?
TTITLE10=Mama Don't Want No Peas 'N' Rice 'N' Coconut Oil
TTITLE11=I Let A Song Go Out Of My Heart
TTITLE12=Stop Beatin' Round The Mulberry Bush
TTITLE13=London Bridge Is Falling Down
TTITLE14=The Blues I Like To Hear
TTITLE15=Do You Wanna Jump Children?
EXTD=
EXTT0=
EXTT1=
EXTT2=
EXTT3=
EXTT4=
EXTT5=
EXTT6=
EXTT7=
EXTT8=
EXTT9=
EXTT10=
EXTT11=
EXTT12=
EXTT13=
EXTT14=
EXTT15=
PLAYORDER=
